<?xml version="1.0" encoding="utf-8"?>
<!-- Svg Vector Icons : http://www.onlinewebfonts.com/icon -->
<!DOCTYPE svg PUBLIC "-//W3C//DTD SVG 1.1//EN" "http://www.w3.org/Graphics/SVG/1.1/DTD/svg11.dtd">
<svg version="1.1" xmlns="http://www.w3.org/2000/svg" xmlns:xlink="http://www.w3.org/1999/xlink" x="0px" y="0px" viewBox="0 0 1000 1000" enable-background="new 0 0 1000 1000" xml:space="preserve">
<metadata> Svg Vector Icons : http://www.onlinewebfonts.com/icon </metadata>
<g><path d="M47.6,465.7c12.3,8.5,24.4,16.9,36.6,25.4c-1.1,74,15.4,143.7,51,208.6c35.7,64.9,85.1,116.7,148.3,155.4c63.1,38.7,131.9,58.6,205.8,60.8c0.7,1.1-0.1,1.8-0.6,2.5c-4.8,7-9.7,14-14.6,21.1c-3.3,4.7-6.6,9.5-9.8,14.2c0.2,1.7,1.4,2.6,2.3,3.7c7.8,9.6,15.7,19.1,23.5,28.6c0.8,1,1.6,2,2.3,3c-0.3,1-1,0.9-1.7,0.9c-9.7,0-19.4-0.6-29.1-1.4c-6.2-0.5-12.3-1.2-18.4-1.8c-11.4-1.2-22.7-3-33.9-5.1c-30-5.6-59.3-14-87.7-25.2C260.8,932.6,207,898,160,852.8c-39.7-38.3-72.1-82-97.1-131.2c-20.2-39.7-34.6-81.4-43.3-125.1c-2.9-14.6-5.1-29.2-6.7-44c-1.8-17.4-2.8-34.8-2.9-52.3c0-2.6,0.7-4.3,2.7-6c10.9-8.8,21.8-17.8,32.6-26.7C46,466.9,46.6,466.4,47.6,465.7z"/><path d="M523.1,989.4c-2.4-2.2-28.2-33.5-30.3-36.8c8.5-12.2,17-24.5,25.6-37c16.6-1,33.2-2.5,49.7-5.3c16.3-2.7,32.5-6.3,48.4-11c16-4.7,31.7-10.3,47.1-16.9c15.4-6.6,30.3-14.1,44.7-22.4c14.3-8.3,28.1-17.5,41.4-27.4c13.4-10,26.1-20.8,38.1-32.4c12.1-11.6,23.4-23.8,34-36.7c10.6-12.9,20.4-26.4,29.4-40.5c8.9-14,16.9-28.4,24.1-43.4c7.2-15.1,13.5-30.5,18.9-46.3c5.4-15.8,9.7-31.9,13.1-48.3c3.4-16.2,5.8-32.6,7.2-49.1c1.4-16.6,2-33.3,1.3-49.8c1.3-0.9,1.9,0.1,2.6,0.6c11.1,7.7,22.3,15.4,33.4,23.1c1.2,0.8,2.4,1.6,3.5,2.4c1.5,0,2.2-1,3.1-1.8c9.3-7.6,18.5-15.2,27.7-22.8c1-0.8,2-1.5,3.1-2.3c0.8,3,1,13.1,0.9,21.4c-0.9,55.7-10.6,109.7-29.8,162c-17.6,48.1-42.3,92.4-73.8,132.8c-31.7,40.6-68.9,75.4-111.6,104.3c-42.4,28.8-88.2,50.4-137.4,64.7C600,981.3,561.9,987.7,523.1,989.4z"/><path d="M480.7,10.7c9.9,12.1,19.8,24.1,29.7,36.1c-1.4,3-21.9,32.7-25.7,37.5c-2.8,0.2-5.8,0.5-8.8,0.6c-45,2.5-88.4,12.1-130.2,28.9C295,134,250,163.1,210.9,201.2C154.7,255.8,116.7,321,97,396.9c-4,15.4-7,31-9,46.8c-0.7,5.9-1.4,11.7-2.1,17.6c-0.1,0.6-0.2,1.3-0.3,1.9c-1.5,0.3-2.3-0.8-3.2-1.4c-10.8-7.5-21.6-15-32.4-22.4c-1.1-0.7-2.2-1.5-3.2-2.2c-1.5,0-2.2,1-3.1,1.7c-9.6,7.8-19.1,15.7-28.6,23.5c-1,0.8-1.9,1.7-3.3,2.3c-0.6-1.5-0.3-2.8-0.2-4c0.5-5.8,1-11.5,1.7-17.3c1.4-12,3.2-24,5.5-35.8c5.9-30.8,14.6-60.7,26.3-89.8c23.8-59.2,57.8-111.9,102.2-157.8C207.8,97.5,279.9,53.9,363.4,29.4c19.4-5.7,39.2-10.1,59.2-13.2c17.9-2.8,35.9-4.8,54.1-5.5C478,10.7,479.3,10.7,480.7,10.7z"/><path d="M513.9,84.2c-0.1-0.4-0.2-0.5-0.2-0.6c0-0.1,0-0.3,0.1-0.4c0.2-0.3,0.4-0.7,0.6-1c8.2-11.9,16.4-23.8,24.6-35.7c0.1-0.1,0.1-0.3,0.2-0.7c-0.6-0.8-1.2-1.7-1.9-2.6c-8.1-9.9-16.2-19.7-24.3-29.6c-0.7-0.9-1.4-1.8-2-2.7c0.7-1,1.6-0.8,2.3-0.8c6.4,0.3,12.9,0.4,19.3,0.9c7.2,0.5,14.4,1.2,21.6,2c13.7,1.4,27.3,3.6,40.9,6.2c41.4,8.1,81,21.4,118.8,39.8c42,20.4,80.4,46.2,114.9,77.7c63.7,58,109.3,127.9,136.6,209.7c8.2,24.7,14.4,50,18.4,75.7c1.6,10.2,2.7,20.6,4,30.9c0.1,0.9,0,1.8,0,2.8c-2,2.3-30.1,25.4-33.5,27.6c-0.9-0.6-1.9-1.2-2.9-1.8c-11.7-8.1-23.3-16.2-35-24.2c-2.2-1.5-3.1-3.2-3.4-5.8c-5.3-46.8-18.4-91.3-39-133.6c-19.2-39.4-44.1-74.9-74.5-106.5c-46.5-48.1-101.3-83.2-164.6-105c-22.8-7.9-46.1-13.6-69.9-17.3c-13.5-2.1-27.1-3.7-40.7-4.3C520.8,84.7,517.3,84.4,513.9,84.2z"/><path d="M267.1,454.2c1.3-0.2,2-0.4,2.8-0.3c16.7,0,33.4,0.1,50.1,0.1c4.2,0,8.4,0.5,12.5,1.6c9.5,2.5,14.9,8.8,16.8,18.3c0.7,3.4,0.7,6.8,0.1,10.2c-1.6,9.2-6.9,15.4-15.4,19c-1.5,0.6-3.1,1.2-4.7,1.8c0.3,0.3,0.3,0.5,0.4,0.5c6.5,2.3,10.5,7.4,13.6,13.1c4.5,8,8.5,16.3,12.7,24.5c0.3,0.5,0.4,1.2,0.5,1.8c-3,0.5-27,0.6-31.5,0.1c-0.6-1.1-1.4-2.3-2.1-3.5c-4.3-7.9-8.5-15.7-12.8-23.6c-1.1-2-2.2-3.9-3.6-5.6c-2.6-3.3-6.2-4.3-10.7-3.3c-0.6,2.9-0.2,5.9-0.3,8.9c-0.1,3,0,6,0,9.1c0,2.9,0,5.8,0,8.7c0,3,0,6,0,9.1c-0.7,0.2-1.2,0.5-1.7,0.5c-8.3,0-16.6,0-24.8,0c-0.5,0-1-0.2-1.5-0.3c-0.9-1.4-0.5-2.9-0.5-4.3c0-20,0-39.9,0-59.9c0-7.4,0-14.7,0-22.1C267.1,457.2,267.1,455.9,267.1,454.2z M295.8,490.4c1.3,0.1,2.1,0.3,2.8,0.3c3.4,0,6.8,0,10.2-0.2c2.1-0.1,4.2-0.6,6.2-1.1c3.8-0.9,6.2-4.2,6.2-8.1c0-4.2-2.3-7.3-6.5-8.2c-1.9-0.4-3.9-0.7-5.8-0.7c-3.5-0.1-7.1,0-10.6,0c-0.7,0-1.5,0.2-2.6,0.3C295.7,478.6,295.6,484.3,295.8,490.4z"/><path d="M408.4,546.7c-6-0.1-11.4-0.5-16.6-1.7c-15-3.6-24.5-13.2-29.2-27.6c-2.6-7.8-3-16-2.2-24.1c0.4-4.1,1-8.1,2.3-12c4.5-13.7,13.7-22.8,27.6-26.8c11.7-3.3,23.6-3.2,35.4,0.2c14.4,4.3,23.5,13.9,27.3,28.4c2.9,11,2.7,22.2-0.2,33.1c-4.4,16.3-15.3,25.8-31.6,29.3C416.8,546.6,412.3,546.7,408.4,546.7z M426.7,499.3c-0.1,0-0.3,0-0.4,0c0-1.8,0.1-3.7,0-5.5c-0.2-3.4-0.9-6.8-2.4-9.9c-1.9-4.3-5.1-7.3-9.5-8.9c-4.2-1.5-8.5-1.6-12.8-0.4c-4.4,1.3-7.6,4-9.8,8c-0.7,1.4-1.3,2.9-1.7,4.4c-2.1,8-2.1,16.1-0.3,24.1c0.4,1.6,1,3.3,1.7,4.8c2.1,4.5,5.7,7.5,10.5,8.8c3.7,1,7.6,1,11.3,0c5.1-1.4,8.8-4.6,10.7-9.6c0.6-1.7,1.2-3.5,1.5-5.3C426,506.3,426.3,502.8,426.7,499.3z"/><path d="M630,454.2c0.6,2.9,0.7,13.7,0.2,18.8c-0.6,0.2-1.4,0.5-2.1,0.5c-2.9,0.1-5.8,0-8.7,0c-10.5,0-21,0-31.5,0c-1.4,0-2.9-0.2-4.4,0.4c-0.4,4.5-0.2,8.9-0.2,13.2c1.6,1.1,3,0.7,4.4,0.7c11.4,0,22.9,0,34.3,0c1.4,0,2.9,0.1,4.4,0.1c0.9,3.1,0.4,6.1,0.5,9.1c0.1,3,0.2,6-0.2,9c-1.6,0.7-3,0.4-4.4,0.5c-11.4,0-22.9,0-34.3,0c-1.4,0-2.9,0.1-4.4,0.1c-0.7,2.1-0.4,4-0.4,6c-0.1,1.8,0,3.7,0,5.5c0,1.9-0.2,3.9,0.3,6c2.7,0.3,5.3,0.1,7.9,0.2c2.6,0,5.3,0,7.9,0c2.8,0,5.5,0,8.3,0c2.6,0,5.3,0,7.9,0c2.6,0,5.3,0,7.9,0c2.6,0,5.2-0.2,7.8,0.2c0.2,0.6,0.5,0.9,0.5,1.3c0,5.7,0.1,11.3,0.1,17c0,0.6-0.1,1.3-0.2,2c-1.5,0.7-3,0.4-4.4,0.4c-8.9,0-17.9,0-26.8,0c-13.5,0-27.1,0-40.6,0c-1.4,0-2.9,0-4.5,0c-0.2-0.9-0.4-1.7-0.5-2.4c-0.1-0.8,0-1.6,0-2.4c0-27.2,0-54.4,0-81.6c0-1.4,0.1-2.9,0.1-4.5c0.9-0.2,1.6-0.3,2.4-0.4c0.9-0.1,1.8,0,2.8,0c21.8,0,43.6,0,65.4,0C627,453.8,628.5,453.6,630,454.2z"/><path d="M707.6,507.7c8.4,2.4,16.4,4.9,24.5,7.4c-0.2,1-0.3,1.8-0.4,2.5c-1.1,4.3-2.9,8.5-5.3,12.3c-5.3,8.4-12.9,13.8-22.7,15.7c-10.2,2-20.4,1.7-30.5-0.8c-6.7-1.6-12.4-4.9-17.1-10c-5.8-6.2-9.7-13.4-11.3-21.7c-1.8-9.1-1.9-18.3,0-27.4c3.5-17,13.5-27.9,30.5-31.8c10-2.3,20.1-2.2,30.1,0.2c9.3,2.3,16.3,7.6,21.2,15.8c2,3.3,3.7,6.7,4.7,10.6c-4,1.6-8.1,2.1-12.1,3c-4.1,1-8.2,1.8-12.4,2.8c-0.5-1.1-1-2-1.4-3c-2.8-6.1-7.5-9.3-14.1-9.7c-8.5-0.5-15.3,4.3-17.7,12.7c-0.7,2.6-1.1,5.4-1.4,8.1c-0.6,6.1-0.1,12.1,1.1,18c0.3,1.3,0.7,2.5,1.2,3.7c1.9,4.6,5.3,7.5,10.1,8.6c3.4,0.8,6.8,0.7,10.2-0.1c3.5-0.8,6.3-2.7,8.2-5.7c1.3-2.2,2.4-4.7,3.4-7.1C706.8,510.7,707.1,509.5,707.6,507.7z"/><path d="M203.4,511.8c-0.3,3.8-0.1,7.5-0.2,11.1c0,3.5,0,7.1,0,10.6c0,3.7,0.1,7.3-0.1,11.2c-0.8,0.2-1.4,0.4-2,0.4c-8.1,0-16.3,0-24.4,0c-0.5,0-1-0.2-1.5-0.3c-0.8-1.4-0.4-2.9-0.4-4.3c0-21.9,0-43.9,0-65.8c0-5.6,0-11.3,0-16.9c0-1.1,0.1-2.3,0.2-3.6c1.2-0.1,2.2-0.3,3.2-0.3c14.7,0,29.4-0.1,44.1,0c3.3,0,6.6,0.3,9.8,1c10.7,2.2,17.4,8.7,19.5,19.6c0.9,4.7,1,9.4,0.1,14.1c-2.1,11.8-9.2,18.8-20.7,21.5c-4.4,1-8.8,1.2-13.3,1.3c-3.7,0.1-7.4,0-11,0C205.7,511.4,204.7,511.6,203.4,511.8z M203.6,492.5c4.5,0.3,8.8,0.5,13.1-0.5c0.8-0.2,1.5-0.4,2.2-0.7c3.9-1.7,5.9-5,5.7-9.4c-0.2-4.2-2.6-7.4-6.5-8.4c-4.7-1.3-9.5-1.1-14.3-0.7C203.1,475.7,203,487.7,203.6,492.5z"/><path d="M796.5,544.8c-1,0.2-1.5,0.3-2,0.3c-8.3,0-16.5,0-24.8,0c-0.4,0-0.7-0.2-1.1-0.4c-0.7-1.5-0.4-3.1-0.4-4.7c0-19.4,0-38.9,0-58.3c0-1.6,0.2-3.1-0.3-4.6c-1.3-0.9-2.7-0.6-4-0.6c-6.7,0-13.4,0-20.1,0c-1.3,0-2.6-0.1-4.1-0.2c-0.5-2.6-0.2-5.1-0.3-7.6c0-2.4,0-4.7,0-7.1c0-2.5-0.2-4.9,0.2-7.5c1-0.1,1.7-0.3,2.5-0.3c15-0.5,79.2-0.2,82.8,0.4c0.9,2.4,0.3,4.9,0.4,7.3c0.1,2.4,0,4.7,0,7.1c0,2.5,0.2,4.9-0.2,7.2c-1.5,1-2.8,0.7-4.1,0.7c-6.7,0-13.4,0-20.1,0c-1.3,0-2.6,0.1-3.6,0.1c-1.2,1.1-0.9,2.2-0.9,3.2c0,6.3,0,12.6,0,18.9c0,13.8,0,27.6,0,41.4C796.5,541.5,796.5,543,796.5,544.8z"/><path d="M489.6,510.6c0.2,2.1,0.4,3.6,0.6,5.2c0.2,1.3,0.4,2.6,0.8,3.8c1.5,4.2,4.4,5.9,8.8,5.5c2.9-0.3,5.1-1.6,6.1-4.3c0.8-1.9,1.2-4,1.5-6.1c0.3-1.9,0.2-3.9,0.2-5.9c0-16.7,0-33.4,0-50.1c0-1.4,0-2.9,0-4.5c0.8-0.2,1.4-0.5,2-0.5c8.3,0,16.6,0,24.8,0c0.4,0,0.7,0.2,1.3,0.3c0.1,0.8,0.3,1.7,0.3,2.6c0,17.5,0,34.9-0.1,52.4c0,4.5-0.6,8.9-1.4,13.3c-2.2,11.7-9.6,18.6-20.4,22.4c-4.1,1.4-8.5,1.8-12.8,1.8c-5.7,0-11.3-0.2-16.8-1.7c-9-2.5-15.3-7.9-18.9-16.5c-1.9-4.4-2.8-9-3-14c4.3-1.3,8.8-1.5,13.2-2.1C480.3,511.7,484.7,511,489.6,510.6z"/></g>
</svg>